<?xml version="1.0" encoding="UTF-8" standalone="no"?>
<svg
   version="1.1"
   id="Layer_1"
   x="0px"
   y="0px"
   width="262144"
   viewBox="0 0 262144 262144"
   enable-background="new 0 0 512 512"
   xml:space="preserve"
   height="262144"
   xmlns="http://www.w3.org/2000/svg"
   xmlns:svg="http://www.w3.org/2000/svg"><defs
   id="defs4" />




<path
   style="fill:#000000;stroke:#000000;stroke-width:1.60056"
   d="M 257.14454,80.975857 C 208.11951,198.48066 159.55398,316.21559 112.20325,434.39314 c 1.24423,5.13864 10.70722,1.35152 14.57902,2.66236 8.41857,-1.56285 20.87909,3.47763 26.41799,-2.82999 15.08236,-33.19766 26.28283,-68.09955 41.86092,-101.07091 41.20788,0.27883 82.41576,0.55765 123.62365,0.83648 13.67346,34.37006 27.23611,68.78476 41.11216,103.0738 14.01882,-0.91488 28.96273,1.80533 42.4886,-1.42325 -9.29545,-28.00932 -22.12804,-55.37321 -32.87343,-83.08608 C 332.08946,262.05809 295.56194,170.68863 257.14454,80.975857 Z m -1.18917,92.464913 c 13.50489,35.46051 26.81095,71.16284 40.78444,106.51022 1.26472,5.67852 6.02387,12.36503 4.50699,17.90309 -29.82062,2.45948 -60.1013,2.68907 -89.93365,0.40887 -1.73656,-7.63433 4.59507,-16.12004 6.45772,-23.7428 13.5511,-33.36354 25.92004,-67.33439 38.1252,-101.10123 z"
   id="path5" /></svg>
