<?xml version="1.0" encoding="UTF-8" standalone="no"?>
<svg
   class="img-fluid"
   id="outputsvg"
   style="transform: matrix(0.6591, 0, 0, 0.6591, 0, 0); transform-origin: 50% 50% 0px; cursor: move; max-height: none; transition: none;"
   width="512"
   height="512"
   viewBox="0 0 5120 5120"
   version="1.1"
   sodipodi:docname="safari-pinned-tab.svg"
   inkscape:version="1.4 (e7c3feb1, 2024-10-09)"
   xmlns:inkscape="http://www.inkscape.org/namespaces/inkscape"
   xmlns:sodipodi="http://sodipodi.sourceforge.net/DTD/sodipodi-0.dtd"
   xmlns="http://www.w3.org/2000/svg"
   xmlns:svg="http://www.w3.org/2000/svg">
  <defs
     id="defs2" />
  <sodipodi:namedview
     id="namedview2"
     pagecolor="#ffffff"
     bordercolor="#666666"
     borderopacity="1.0"
     inkscape:showpageshadow="2"
     inkscape:pageopacity="0.0"
     inkscape:pagecheckerboard="0"
     inkscape:deskcolor="#d1d1d1"
     inkscape:zoom="0.29371135"
     inkscape:cx="-207.6869"
     inkscape:cy="350.68444"
     inkscape:window-width="1336"
     inkscape:window-height="647"
     inkscape:window-x="45"
     inkscape:window-y="25"
     inkscape:window-maximized="0"
     inkscape:current-layer="outputsvg" />
  <g
     id="l3vzhvFb06VzWfKk7rvOUY3"
     fill="rgb(1,133,121)"
     style="transform:none;fill:#1d9b4e;fill-opacity:1">
    <g
       style="transform:none;fill:#1d9b4e;fill-opacity:1"
       id="g1">
      <path
         id="pWkRoLPxY"
         d="M444 5109 c-223 -29 -408 -221 -434 -449 -13 -115 -13 -4085 0 -4200 26 -234 216 -424 450 -450 113 -13 4086 -13 4197 0 242 27 427 213 454 455 6 58 8 835 7 2160 -3 1960 -4 2073 -21 2123 -67 197 -232 336 -429 362 -89 12 -4136 11 -4224 -1z m1230 -1157 c49 -136 109 -302 134 -369 l44 -123 712 0 711 0 130 361 c71 198 132 365 135 370 4 6 100 8 242 7 l236 -3 -579 -1600 c-318 -880 -585 -1615 -594 -1632 l-15 -33 -268 0 -267 0 -593 1629 c-325 896 -592 1631 -592 1635 0 3 107 6 238 6 l237 0 89 -248z"
         style="fill:#1d9b4e;fill-opacity:1" />
      <path
         id="pRzEp276e"
         d="M1980 3128 c0 -18 123 -377 274 -798 l274 -765 34 -3 34 -3 277 774 c152 425 277 786 277 800 l0 27 -585 0 -585 0 0 -32z"
         style="fill:#1d9b4e;fill-opacity:1" />
    </g>
  </g>
  <g
     id="l6BebXJkOzoNHbJQ7B59TAi"
     fill="rgb(255,255,255)"
     style="transform: none;">
    <g
       style="transform: none;"
       id="g2">
      <path
         id="ph6NgalXd"
         d="M1060 4223 c0 -5 271 -754 602 -1665 l603 -1658 297 0 c281 0 298 1 307 19 6 10 277 754 602 1652 326 899 594 1640 596 1647 4 9 -55 12 -275 12 l-280 0 -44 -122 c-25 -68 -85 -234 -134 -370 l-89 -248 -681 0 -682 0 -44 123 c-25 67 -85 233 -134 369 l-89 248 -277 0 c-153 0 -278 -3 -278 -7z m2041 -1140 c-10 -27 -134 -373 -276 -771 -142 -397 -261 -719 -265 -715 -4 4 -128 346 -275 758 -147 413 -270 756 -272 763 -4 9 110 12 551 12 l556 0 -19 -47z" />
    </g>
  </g>
</svg>
